<svg width="240" height="240" viewBox="0 0 240 240" fill="none" xmlns="http://www.w3.org/2000/svg">
<path d="M89.9999 140C89.9999 134.477 85.5227 130 79.9999 130C74.477 130 69.9999 134.477 69.9999 140C69.9999 153.574 72.6721 167.375 80.8236 177.972C89.3437 189.048 102.571 195 120 195C125.523 195 130 190.523 130 185C130 179.477 125.523 175 120 175C107.429 175 100.656 170.952 96.6761 165.778C92.3276 160.125 89.9999 151.426 89.9999 140Z" fill="#1E1E1E"/>
<path fill-rule="evenodd" clip-rule="evenodd" d="M134.228 15.4267C126.513 7.11987 113.48 7.1202 105.766 15.4273C96.3287 25.5896 78.9116 45.305 63.7916 67.7881C48.7045 90.2222 34.6953 115.773 34.9416 143.526C34.9633 145.981 35.0939 149.426 35.5218 153.536C36.3717 161.7 38.4245 172.78 43.3361 184.008C48.2693 195.285 56.1868 206.923 68.8173 215.709C81.5052 224.536 98.2552 230 119.997 230C141.739 230 158.489 224.536 171.178 215.709C183.808 206.923 191.727 195.286 196.661 184.009C201.573 172.781 203.627 161.7 204.477 153.536C204.905 149.427 205.036 145.982 205.058 143.527C205.306 115.774 191.293 90.2208 176.206 67.7875C161.084 45.3043 143.666 25.5889 134.228 15.4267ZM80.3877 78.9491C94.4577 58.0274 110.797 39.4302 119.997 29.4942C129.198 39.4301 145.539 58.0273 159.61 78.9491C172.351 97.8932 185.269 119.805 185.059 143.348C185.042 145.268 184.938 148.074 184.585 151.464C183.873 158.3 182.176 167.22 178.338 175.992C174.521 184.715 168.689 193.078 159.756 199.291C150.882 205.465 138.256 210 119.997 210C101.738 210 89.1129 205.465 80.2387 199.291C71.3071 193.078 65.4754 184.715 61.6596 175.992C57.8221 167.22 56.1259 158.301 55.4142 151.465C55.0613 148.074 54.9578 145.269 54.9408 143.349C54.732 119.806 67.6469 97.8944 80.3877 78.9491Z" fill="#1E1E1E"/>
</svg>
