<svg width="240" height="240" viewBox="0 0 240 240" fill="none" xmlns="http://www.w3.org/2000/svg">
<path fill-rule="evenodd" clip-rule="evenodd" d="M155.663 33.2062C158.899 34.296 161.055 37.2567 161.011 40.5531C161.05 42.001 161.034 43.1783 161.034 43.1783C161.034 43.1783 160.258 83.3179 110.261 119.163C89.9221 133.746 72.0765 157.79 67.1184 180.534C66.4658 183.575 63.968 185.927 60.7953 186.483C57.6226 187.039 54.4054 185.689 52.6502 183.064C38.9541 162.677 23.6884 124.808 51.0756 80.9828C75.7708 41.468 120.402 21.9783 155.663 33.2062ZM144.937 45.5903C114.502 41.2619 84.2664 58.4441 65.0523 89.1531C49.7909 113.544 52.1421 141.683 59.0715 160.415C65.3803 143.346 77.4415 123.054 100.48 106.536C129.836 85.49 141.608 57.492 144.937 45.5903Z" fill="#D26023"/>
<path fill-rule="evenodd" clip-rule="evenodd" d="M84.5675 206.912C81.186 205.788 78.9251 202.697 78.9734 199.257C78.9295 197.916 78.9411 196.86 78.9411 196.86C78.9411 196.86 79.7188 156.721 129.717 120.876C149.873 106.426 167.58 82.6813 172.723 60.1238C173.435 56.9797 176.048 54.5663 179.342 54.0223C182.639 53.4749 185.961 54.8994 187.755 57.63C201.344 78.1653 215.999 115.697 188.901 159.057C164.262 198.472 119.791 217.963 84.5675 206.912ZM95.039 194.448C125.473 198.777 155.709 181.595 174.924 150.887C190.186 126.496 187.836 98.3576 180.907 79.6259C174.598 96.695 162.536 116.986 139.497 133.504C110.141 154.549 98.3676 182.547 95.039 194.448Z" fill="#D26023"/>
</svg>
