<svg width="240" height="240" viewBox="0 0 240 240" fill="none" xmlns="http://www.w3.org/2000/svg">
<path d="M90 160C98.5038 166.303 108.846 170 120 170C131.154 170 141.496 166.303 150 160" stroke="#1E1E1E" stroke-width="12" stroke-linecap="round"/>
<path d="M160 105C160 113.284 155.523 120 150 120C144.477 120 140 113.284 140 105C140 96.7157 144.477 90 150 90C155.523 90 160 96.7157 160 105Z" fill="#1E1E1E"/>
<path d="M90 120C95.5228 120 100 113.284 100 105C100 96.7157 95.5228 90 90 90C84.4772 90 80 96.7157 80 105C80 113.284 84.4772 120 90 120Z" fill="#1E1E1E"/>
<path d="M70 33.3782C84.7087 24.8697 101.786 20 120 20C175.228 20 220 64.7715 220 120C220 175.228 175.228 220 120 220C64.7715 220 20 175.228 20 120C20 101.786 24.8697 84.7087 33.3782 70" stroke="#1E1E1E" stroke-width="20" stroke-linecap="round"/>
</svg>
